<?xml version="1.0" standalone="no"?>
<!DOCTYPE svg PUBLIC "-//W3C//DTD SVG 20010904//EN"
 "http://www.w3.org/TR/2001/REC-SVG-20010904/DTD/svg10.dtd">
<svg version="1.0" xmlns="http://www.w3.org/2000/svg"
 width="255.000000pt" height="55.000000pt" viewBox="0 0 255.000000 55.000000"
 preserveAspectRatio="xMidYMid meet">

<g transform="translate(0.000000,55.000000) scale(0.100000,-0.100000)"
fill="#000000" stroke="none">
<path d="M129 486 c-14 -30 -7 -61 23 -107 23 -34 97 -79 130 -79 17 0 17 2 4
23 -7 12 -21 43 -31 68 -21 58 -70 119 -96 119 -11 0 -24 -11 -30 -24z"/>
<path d="M924 376 c-85 -37 -120 -193 -68 -302 48 -100 222 -95 275 8 31 59
33 177 3 228 -42 73 -131 100 -210 66z m125 -64 c61 -61 48 -224 -21 -253 -85
-35 -152 77 -119 199 23 84 86 108 140 54z"/>
<path d="M670 353 c0 -2 14 -31 30 -64 25 -49 35 -60 53 -57 50 7 0 109 -59
121 -13 2 -24 2 -24 0z"/>
<path d="M1184 283 c11 -37 56 -199 64 -232 10 -45 31 -58 69 -42 53 22 103
124 119 243 l7 49 -34 -3 c-32 -3 -33 -4 -45 -68 -13 -70 -42 -150 -54 -150
-4 0 -13 27 -19 60 -7 32 -19 82 -27 110 -14 48 -16 50 -50 50 -29 0 -34 -3
-30 -17z"/>
<path d="M1815 293 c-35 -9 -65 -44 -65 -77 0 -42 10 -54 66 -85 83 -44 68
-97 -20 -73 -31 8 -43 8 -48 -1 -15 -24 -7 -35 37 -47 79 -22 135 1 150 63 10
37 -15 72 -70 98 -46 22 -67 55 -44 70 19 12 46 11 69 -1 15 -8 21 -6 30 9 5
11 10 22 10 24 0 4 -85 28 -92 26 -2 -1 -12 -3 -23 -6z"/>
<path d="M1960 186 c0 -63 4 -126 10 -141 19 -51 111 -57 155 -9 l22 24 13
-30 c14 -34 19 -36 45 -17 16 12 16 18 7 47 -7 18 -12 80 -12 136 l0 104 -29
0 -28 0 -5 -96 c-6 -107 -24 -147 -71 -152 -37 -5 -47 26 -47 149 l0 99 -30 0
-30 0 0 -114z"/>
<path d="M1511 264 c-72 -60 -63 -212 14 -249 96 -45 185 19 185 131 0 102
-34 144 -116 144 -42 0 -59 -5 -83 -26z m113 -36 c20 -28 22 -137 3 -162 -19
-26 -68 -18 -84 14 -18 35 -16 121 3 148 8 12 26 22 39 22 13 0 31 -10 39 -22z"/>
<path d="M2273 280 c-20 -8 -20 -11 -7 -47 7 -22 13 -80 14 -135 l0 -98 29 0
29 0 4 94 c3 103 19 136 65 136 16 0 27 8 33 26 14 35 14 34 -25 34 -25 0 -44
-8 -61 -25 l-25 -25 -11 25 c-12 27 -13 28 -45 15z"/>
</g>
</svg>
